<svg xmlns="http://www.w3.org/2000/svg" enable-background="new 0 0 512 512" viewBox="0 0 512 512" id="robot"><g><linearGradient id="a" x1="1" x2="511" y1="256" y2="256" gradientUnits="userSpaceOnUse"><stop offset="0" stop-color="#4371c2"></stop><stop offset=".022" stop-color="#486ec1"></stop><stop offset=".222" stop-color="#6d58bc"></stop><stop offset=".421" stop-color="#8a46b8"></stop><stop offset=".618" stop-color="#9e3ab4"></stop><stop offset=".813" stop-color="#ab33b3"></stop><stop offset="1" stop-color="#af30b2"></stop></linearGradient><path fill="url(#a)" d="M471,171h-20v-20c0-27.57-22.43-50-50-50H111c-11.247,0-21.637,3.735-30,10.027V69.537
		C95.44,65.223,106,51.824,106,36c0-19.299-15.701-35-35-35S36,16.701,36,36c0,15.824,10.56,29.223,25,33.537V151v20H41
		c-22.056,0-40,17.944-40,40v30c0,22.056,17.944,40,40,40h20v30c0,27.57,22.43,50,50,50h60v30h-50c-16.542,0-30,13.458-30,30v10.849
		C62.661,436.626,41,461.324,41,491v10c0,5.522,4.478,10,10,10c16.568,0,394.95,0,410,0c5.522,0,10-4...9,0-70c0-5.514,4.486-10,10-10C149.345,411,363.068,411,391,411z M191,391v-30h130v30H191z M431,311
		c0,16.542-13.458,30-30,30c-16.373,0-273.633,0-290,0c-16.542,0-30-13.458-30-30c0-14.095,0-136.605,0-160
		c0-16.542,13.458-30,30-30h290c16.542,0,30,13.458,30,30C431,215.206,431,292.429,431,311z M491,241c0,11.028-8.972,20-20,20h-20
		v-70h20c11.028,0,20,8.972,20,20V241z M371,151H141c-16.542,0-30,13.458-30,30v100c0,16.542,13.458,30,30,30h230
		c16.542,0,30-13.458,30-30V181C401,164.458,387.542,151,371,151z M381,281c0,5.514-4.486,10-10,10H141c-5.514,0-10-4.486-10-10V181
		c0-5.514,4.486-10,10-10h230c5.514,0,10,4.486,10,10V281z M181,201c-16.542,0-30,13.458-30,30s13.458,30,30,30s30-13.458,30-30
		S197.542,201,181,201z M181,241c-5.514,0-10-4.486-10-10s4.486-10,10-10s10,4.486,10,10S186.514,241,181,241z M331,201
		c-16.542,0-30,13.458-30,30s13.458,30,30,30s30-13.458,30-30S347.542,201,331,201z M331,241c-5.514,0-10-4.486-10-10
		s4.486-10,10-10s10,4.486,10,10S336.514,241,331,241z"></path></g></svg>